<svg width="18" height="34" viewBox="0 0 18 34" fill="none" xmlns="http://www.w3.org/2000/svg">
<path d="M0.110799 31.7382C0.0988747 31.1256 0.324842 30.5381 0.727847 30.1325L13.3415 17.0982L0.727848 4.06844C0.24442 3.56873 0.0313026 2.81292 0.169204 2.08596C0.307106 1.3587 0.77494 0.770846 1.39628 0.543275C2.01763 0.315705 2.69828 0.48299 3.18195 0.982698L17.2876 15.5576L17.2879 15.5576C17.6701 15.952 17.8881 16.5124 17.8881 17.1003C17.8881 17.6881 17.6701 18.2485 17.2879 18.6433L3.18226 33.2182L3.18195 33.2182C2.83612 33.5851 2.37898 33.7851 1.90658 33.7764C1.43385 33.7674 0.98282 33.5499 0.648027 33.1701C0.31321 32.7899 0.120569 32.2766 0.110784 31.7382L0.110799 31.7382Z" fill="white"/>
</svg>
