<svg width="56" height="56" viewBox="0 0 56 56" fill="none" xmlns="http://www.w3.org/2000/svg">
<g clip-path="url(#clip0_1_1193)">
<path d="M51 28V32.25C51 39.2922 40.7023 45 28 45C15.5235 45 5.368 39.4941 5.01045 32.6261L5 32.25V28C5 35.0422 15.2977 40.75 28 40.75C40.7023 40.75 51 35.0422 51 28ZM28 11C40.7023 11 51 16.7078 51 23.75C51 30.7922 40.7023 36.5 28 36.5C15.2977 36.5 5 30.7922 5 23.75C5 16.7078 15.2977 11 28 11Z" fill="white"/>
</g>
<defs>
<clipPath id="clip0_1_1193">
<rect width="56" height="56" fill="white"/>
</clipPath>
</defs>
</svg>
