<svg width="15" height="9" viewBox="0 0 15 9" fill="none" xmlns="http://www.w3.org/2000/svg">
<path d="M1.70471 0.944516C1.94976 0.939746 2.18476 1.03013 2.34701 1.19133L7.56071 6.2368L12.7726 1.19133C12.9725 0.997964 13.2748 0.912716 13.5656 0.967877C13.8565 1.02304 14.0917 1.21017 14.1827 1.45871C14.2737 1.70725 14.2068 1.97951 14.0069 2.17298L8.17697 7.81523V7.81535C8.01918 7.96824 7.79505 8.05545 7.5599 8.05545C7.32474 8.05545 7.10062 7.96824 6.94268 7.81535L1.11273 2.1731V2.17298C0.965954 2.03464 0.885946 1.85179 0.889432 1.66283C0.893056 1.47374 0.980035 1.29332 1.13197 1.15941C1.28404 1.02548 1.48937 0.948423 1.70472 0.944509L1.70471 0.944516Z" fill="white"/>
</svg>
