<svg width="76" height="76" viewBox="0 0 76 76" fill="none" xmlns="http://www.w3.org/2000/svg">
<path d="M24.2672 57.7598C24.2672 53.9205 25.7957 50.2385 28.5165 47.5237C31.2373 44.8089 34.9275 43.2837 38.7752 43.2837C42.623 43.2837 46.3132 44.8089 49.034 47.5237C51.7548 50.2385 53.2833 53.9205 53.2833 57.7598H24.2672ZM38.7752 41.4742C32.7635 41.4742 27.8942 36.6156 27.8942 30.6171C27.8942 24.6186 32.7635 19.76 38.7752 19.76C44.787 19.76 49.6563 24.6186 49.6563 30.6171C49.6563 36.6156 44.787 41.4742 38.7752 41.4742ZM52.1281 45.5148C54.9021 46.2262 57.3805 47.7927 59.2104 49.9913C61.0404 52.1898 62.1285 54.9083 62.32 57.7598H56.9103C56.9103 53.037 55.0968 48.7376 52.1281 45.5148ZM48.4594 41.3964C49.9791 40.0401 51.1944 38.3787 52.0257 36.5211C52.8571 34.6635 53.2856 32.6515 53.2833 30.6171C53.2872 28.1443 52.6533 25.7122 51.4426 23.5546C53.4966 23.9664 55.3444 25.0752 56.6718 26.6926C57.9991 28.31 58.7242 30.3361 58.7238 32.4266C58.7243 33.7158 58.4486 34.9903 57.9152 36.1645C57.3818 37.3387 56.603 38.3856 55.631 39.235C54.659 40.0844 53.5163 40.7166 52.2794 41.0894C51.0425 41.4622 49.7401 41.5668 48.4594 41.3964Z" fill="white"/>
<path d="M18.3096 49.9915C20.1395 47.7929 22.6179 46.2264 25.3919 45.515C22.4232 48.7378 20.6097 53.0372 20.6097 57.76H15.2C15.3915 54.9085 16.4797 52.19 18.3096 49.9915Z" fill="white"/>
<path d="M24.2367 30.6173C24.2344 32.6517 24.6629 34.6637 25.4943 36.5213C26.0801 37.855 26.9869 39.6646 28.2726 41.0896C27.8936 41.4741 26.9869 41.4741 25.2406 41.0896C23.4943 40.7051 22.861 40.0846 21.889 39.2352C20.917 38.3858 20.1382 37.3389 19.6048 36.1647C19.0714 34.9905 18.7957 33.716 18.7962 32.4268C18.7958 30.3363 19.5209 28.3102 20.8483 26.6928C22.1756 25.0754 24.0234 23.9666 26.0774 23.5548C24.8667 25.7124 24.2328 28.1445 24.2367 30.6173Z" fill="white"/>
</svg>
