<svg width="34" height="30" viewBox="0 0 34 30" fill="none" xmlns="http://www.w3.org/2000/svg">
<path d="M26.9997 6.66667H31.9997C32.4417 6.66667 32.8656 6.84226 33.1782 7.15482C33.4908 7.46738 33.6664 7.89131 33.6664 8.33333V28.3333C33.6664 28.7754 33.4908 29.1993 33.1782 29.5118C32.8656 29.8244 32.4417 30 31.9997 30H1.99968C1.55765 30 1.13372 29.8244 0.821163 29.5118C0.508603 29.1993 0.333008 28.7754 0.333008 28.3333V1.66667C0.333008 1.22464 0.508603 0.800716 0.821163 0.488155C1.13372 0.175595 1.55765 0 1.99968 0H26.9997V6.66667ZM3.66634 10V26.6667H30.333V10H3.66634ZM3.66634 3.33333V6.66667H23.6664V3.33333H3.66634ZM21.9997 16.6667H26.9997V20H21.9997V16.6667Z" fill="url(#paint0_linear_367_19777)"/>
<defs>
<linearGradient id="paint0_linear_367_19777" x1="0.333008" y1="0" x2="35.2302" y2="1.94524" gradientUnits="userSpaceOnUse">
<stop stop-color="#E30F2E"/>
<stop offset="1" stop-color="#DB1360"/>
</linearGradient>
</defs>
</svg>
